<?xml version="1.0" standalone="no"?>
<!DOCTYPE svg PUBLIC "-//W3C//DTD SVG 20010904//EN"
 "http://www.w3.org/TR/2001/REC-SVG-20010904/DTD/svg10.dtd">
<svg version="1.0" xmlns="http://www.w3.org/2000/svg"
 width="1280.000000pt" height="1039.000000pt" viewBox="0 0 1280.000000 1039.000000"
 preserveAspectRatio="xMidYMid meet">
<metadata>
Created by potrace 1.15, written by Peter Selinger 2001-2017
</metadata>
<g transform="translate(0.000000,1039.000000) scale(0.100000,-0.100000)"
fill="#000000" stroke="none">
<path d="M7233 10359 c-62 -15 -174 -48 -250 -73 -76 -24 -174 -52 -218 -60
-90 -18 -408 -120 -442 -142 -32 -20 -29 -43 7 -50 17 -4 30 -9 30 -13 0 -11
-63 -50 -105 -64 -78 -28 -115 -50 -105 -62 7 -8 -23 -34 -103 -88 -61 -41
-151 -107 -198 -145 l-85 -69 -60 53 c-32 29 -61 51 -63 49 -2 -2 7 -20 19
-39 26 -44 17 -45 -30 -5 -45 38 -54 16 -15 -36 30 -39 26 -44 -13 -16 -15 10
-37 23 -48 29 -20 11 -21 9 -19 -19 1 -18 15 -43 34 -63 40 -42 39 -50 -5 -31
-46 19 -44 20 -44 -15 0 -27 -3 -30 -31 -30 -27 0 -30 -2 -19 -15 7 -8 19 -15
26 -15 8 0 14 -4 14 -10 0 -5 -12 -10 -27 -10 -42 0 -122 -24 -184 -55 -106
-51 -194 -147 -264 -285 -15 -30 -41 -71 -58 -90 -26 -30 -28 -35 -13 -38 20
-4 16 -38 -15 -110 -11 -24 -19 -66 -19 -94 l0 -49 -272 -302 c-150 -166 -324
-358 -386 -426 -231 -252 -390 -445 -615 -751 -75 -102 -180 -241 -232 -310
-95 -123 -167 -234 -300 -460 -199 -337 -428 -627 -706 -894 -66 -63 -119
-119 -119 -125 0 -21 32 -11 73 23 66 53 187 128 200 123 6 -2 -35 -48 -93
-103 -581 -550 -1120 -1086 -1267 -1259 -90 -107 -426 -521 -496 -612 -6 -9
-6 -18 1 -26 9 -10 -15 -44 -101 -145 -103 -120 -151 -190 -233 -339 -35 -62
-26 -78 19 -36 41 39 191 146 321 230 138 90 337 240 484 367 120 103 160 132
112 81 -20 -22 -21 -25 -6 -25 15 0 16 -6 11 -32 -10 -44 -13 -47 -129 -130
-116 -83 -185 -150 -311 -301 -104 -125 -175 -236 -253 -396 -46 -94 -56 -125
-60 -182 -6 -82 7 -107 71 -138 83 -40 139 -25 404 108 148 74 350 162 713
313 183 76 190 79 190 71 0 -10 -186 -267 -302 -416 -152 -195 -263 -323 -673
-777 -192 -212 -385 -428 -430 -480 -45 -52 -120 -136 -166 -186 -106 -114
-237 -320 -277 -435 -16 -46 -46 -122 -66 -169 -47 -111 -48 -158 -4 -195 30
-25 38 -27 96 -22 l63 5 56 -49 c64 -56 139 -87 238 -99 38 -4 84 -15 100 -24
19 -10 55 -16 101 -16 51 0 75 -4 84 -15 20 -24 53 -18 118 24 60 39 108 61
273 126 148 57 281 134 421 242 l57 44 7 -28 c4 -15 0 -73 -10 -128 -20 -122
-21 -208 -2 -243 8 -15 17 -38 20 -52 6 -28 62 -97 72 -88 3 4 30 -5 60 -19
45 -20 65 -24 107 -19 29 3 104 7 167 9 86 3 130 9 174 25 32 12 88 24 125 28
91 8 165 22 236 45 l61 19 62 -25 c68 -28 90 -30 124 -14 17 7 32 6 58 -5 32
-13 38 -12 81 10 26 13 67 28 92 34 63 14 268 114 324 159 41 31 52 36 74 28
40 -15 174 59 241 132 67 73 187 235 237 319 22 37 49 81 60 97 17 25 21 47
22 130 l1 100 16 -62 c18 -66 33 -90 51 -78 17 10 74 127 156 317 40 92 144
299 233 460 88 161 236 437 329 613 517 975 642 1254 709 1585 14 69 32 131
39 139 13 13 18 12 41 -10 45 -41 315 -457 377 -582 32 -65 75 -134 95 -155
20 -20 50 -62 67 -92 34 -61 83 -100 128 -100 16 0 51 8 77 17 46 16 50 16 90
-2 51 -23 83 -60 119 -139 18 -39 46 -78 79 -109 l52 -48 0 -70 c0 -69 -1 -70
-30 -80 -16 -6 -30 -15 -30 -20 0 -18 52 -42 90 -42 82 0 134 68 136 178 1 38
8 91 17 117 16 46 12 118 -9 172 -7 18 -6 18 19 1 15 -9 27 -20 27 -24 0 -15
64 -43 122 -52 111 -17 115 -22 92 -90 -17 -49 -12 -94 17 -150 24 -47 64 -76
118 -85 40 -6 41 -8 41 -44 0 -65 -17 -95 -69 -124 -56 -30 -97 -33 -129 -10
-33 23 -40 9 -17 -34 40 -74 160 -104 251 -63 94 43 144 132 144 256 0 34 5
88 11 120 18 100 -7 179 -91 287 l-20 26 45 22 c79 38 100 113 74 255 -12 66
-50 155 -97 229 -18 28 -32 58 -32 68 0 32 -44 66 -96 74 -49 7 -141 -6 -224
-32 -25 -7 -75 -13 -111 -12 -58 2 -75 -2 -130 -31 -35 -18 -76 -44 -90 -57
-25 -23 -28 -24 -72 -12 -42 11 -52 10 -99 -11 -58 -25 -106 -40 -155 -48 -28
-4 -39 3 -112 72 -44 42 -108 118 -143 168 -34 51 -87 126 -116 167 -52 72
-137 228 -129 236 2 2 48 -8 103 -22 178 -46 328 -33 477 43 65 33 82 24 24
-13 -26 -16 -47 -32 -47 -36 0 -16 32 -6 107 33 l78 41 -69 -71 c-68 -68 -83
-101 -31 -67 14 9 71 60 126 112 76 72 104 93 110 82 15 -23 10 -37 -21 -53
-16 -9 -30 -22 -30 -29 0 -8 -14 -17 -30 -21 -24 -5 -28 -10 -20 -20 8 -10 3
-14 -25 -19 -19 -4 -35 -11 -35 -16 0 -6 -7 -10 -15 -10 -8 0 -15 -4 -15 -10
0 -35 137 22 177 74 11 13 34 37 52 52 31 26 32 26 46 8 13 -18 15 -18 59 3
37 19 46 20 46 8 0 -46 237 34 370 125 l61 41 52 -44 c29 -24 120 -93 202
-152 338 -243 474 -346 500 -376 23 -28 25 -37 20 -83 -4 -34 -1 -68 9 -101
21 -67 20 -123 -4 -231 -34 -156 -26 -194 45 -194 22 0 29 8 46 47 49 117 86
190 118 227 19 23 43 61 53 84 19 43 21 44 56 37 87 -16 106 -39 121 -150 6
-38 21 -91 35 -118 32 -61 32 -75 0 -137 -31 -59 -35 -141 -10 -190 9 -18 16
-43 16 -56 0 -41 -38 -111 -99 -182 -111 -130 -82 -152 88 -67 126 63 162 101
202 210 13 33 38 94 57 135 30 65 35 85 35 150 0 47 -8 103 -21 150 -21 72
-28 120 -17 120 3 0 17 -8 32 -17 42 -28 83 -92 83 -130 0 -25 10 -44 40 -77
46 -50 51 -86 21 -151 -25 -54 -48 -73 -96 -77 -33 -2 -40 -6 -37 -23 2 -11
16 -32 33 -47 44 -41 97 -39 147 7 46 41 99 146 113 223 6 31 17 72 26 91 10
23 14 55 11 107 l-3 73 -121 118 c-96 95 -142 132 -236 188 -109 65 -118 73
-152 132 -56 97 -110 115 -187 64 l-44 -30 -30 33 c-23 25 -53 40 -130 65
l-100 33 -99 101 c-54 56 -111 118 -127 138 l-28 36 82 96 c45 52 84 91 85 86
2 -5 -10 -34 -27 -64 -17 -30 -26 -55 -20 -55 11 0 22 11 139 136 36 39 72 73
80 76 18 7 174 308 225 432 33 82 44 98 138 195 268 277 477 540 722 908 48
73 95 135 104 137 9 2 37 7 62 10 57 8 155 54 233 110 75 53 143 125 266 279
91 115 95 119 127 114 29 -5 35 -2 47 21 7 15 16 40 20 56 5 20 10 26 17 19 8
-8 5 -25 -9 -57 -12 -25 -19 -46 -16 -46 3 0 42 36 88 79 65 61 97 83 138 96
29 10 63 27 75 38 20 18 23 18 29 3 6 -15 10 -14 40 9 l34 26 -10 -27 c-6 -15
-9 -28 -7 -30 2 -2 21 9 43 24 76 53 205 77 477 92 259 13 375 4 327 -25 -18
-11 -10 -20 38 -40 36 -15 66 -19 130 -17 69 3 82 1 82 -12 0 -12 10 -16 39
-16 22 0 41 -5 44 -12 3 -10 41 -13 146 -11 l142 2 156 -237 c222 -338 327
-463 402 -478 25 -5 32 -2 44 23 30 57 47 154 53 300 13 302 -33 541 -154 792
-33 67 -39 88 -31 108 5 14 6 47 1 77 -7 46 -5 62 19 122 53 130 63 259 27
332 -16 31 -16 35 7 86 29 65 40 120 28 138 -4 7 -8 58 -8 113 0 158 -47 312
-187 620 -94 204 -199 366 -309 474 -57 56 -76 63 -81 29 -3 -21 -10 -16 -73
43 -148 140 -328 251 -455 279 -38 9 -91 36 -169 86 -107 69 -115 73 -132 58
-25 -23 -73 -12 -133 31 -73 52 -147 76 -253 82 l-92 6 -11 -28 c-8 -22 -14
-26 -33 -20 -39 12 -155 25 -296 33 -131 8 -139 9 -226 50 -97 45 -111 42 -80
-17 20 -40 10 -39 -64 5 -42 25 -66 34 -81 29 -14 -4 -28 -1 -41 11 -16 14
-22 15 -28 5 -7 -10 -14 -10 -40 3 -17 9 -31 13 -31 8 0 -10 55 -62 88 -84 16
-11 20 -18 12 -23 -7 -5 -37 18 -76 56 -66 66 -79 69 -43 10 11 -18 19 -35 17
-37 -12 -11 -82 -4 -138 15 -39 14 -75 20 -93 17 -16 -3 -54 1 -84 10 -44 13
-60 14 -77 4 -20 -10 -44 -2 -192 68 -197 93 -259 115 -375 135 -105 19 -452
18 -516 -1 -44 -13 -57 -37 -25 -45 29 -6 -195 -20 -348 -21 -139 0 -290 14
-375 36 -22 5 -79 25 -127 44 -106 41 -137 42 -285 3z m782 -5910 c-22 -42
-29 -48 -41 -39 -21 19 -17 36 17 64 46 39 52 32 24 -25z m-1105 -143 c0 -3
-4 -8 -10 -11 -5 -3 -10 -1 -10 4 0 6 5 11 10 11 6 0 10 -2 10 -4z m210 -882
c16 -29 69 -59 123 -69 21 -4 40 -12 43 -17 10 -16 -6 -79 -21 -85 -22 -8 -95
32 -155 85 -30 27 -68 56 -85 64 l-29 16 49 15 c28 8 53 15 56 16 3 1 12 -11
19 -25z"/>
<path d="M6545 4080 c-7 -12 12 -12 40 0 18 8 17 9 -7 9 -15 1 -30 -3 -33 -9z"/>
</g>
</svg>
